<svg xmlns="http://www.w3.org/2000/svg" xmlns:xlink="http://www.w3.org/1999/xlink" style="display:none">
<!-- Icon github -->
<symbol id="github" xmlns="http://www.w3.org/2000/svg" width="24" height="24" viewBox="0 0 24 24" fill="none"
    stroke="currentColor" stroke-width="2" stroke-linecap="round" stroke-linejoin="round"
    class="icon icon-tabler icons-tabler-outline icon-tabler-brand-github">
    <path stroke="none" d="M0 0h24v24H0z" fill="none" />
    <path
        d="M9 19c-4.3 1.4 -4.3 -2.5 -6 -3m12 5v-3.5c0 -1 .1 -1.4 -.5 -2c2.8 -.3 5.5 -1.4 5.5 -6a4.6 4.6 0 0 0 -1.3 -3.2a4.2 4.2 0 0 0 -.1 -3.2s-1.1 -.3 -3.5 1.3a12.3 12.3 0 0 0 -6.2 0c-2.4 -1.6 -3.5 -1.3 -3.5 -1.3a4.2 4.2 0 0 0 -.1 3.2a4.6 4.6 0 0 0 -1.3 3.2c0 4.6 2.7 5.7 5.5 6c-.6 .6 -.6 1.2 -.5 2v3.5" />
</symbol>

<!-- Icon email -->
                        <symbol id="email" xmlns="http://www.w3.org/2000/svg" width="24" height="24" viewBox="0 0 24 24" fill="none"
                            stroke="currentColor" stroke-width="2" stroke-linecap="round" stroke-linejoin="round"
                            class="icon icon-tabler icons-tabler-outline icon-tabler-mail">
                            <path stroke="none" d="M0 0h24v24H0z" fill="none" />
                            <path d="M3 7a2 2 0 0 1 2 -2h14a2 2 0 0 1 2 2v10a2 2 0 0 1 -2 2h-14a2 2 0 0 1 -2 -2v-10z" />
                            <path d="M3 7l9 6l9 -6" />
                        </symbol>
<!-- Icon instagram -->
                        <svg id="instagram" xmlns="http://www.w3.org/2000/svg" width="24" height="24" viewBox="0 0 24 24" fill="none"
                            stroke="currentColor" stroke-width="2" stroke-linecap="round" stroke-linejoin="round"
                            class="icon icon-tabler icons-tabler-outline icon-tabler-brand-instagram">
                            <path stroke="none" d="M0 0h24v24H0z" fill="none" />
                            <path d="M4 8a4 4 0 0 1 4 -4h8a4 4 0 0 1 4 4v8a4 4 0 0 1 -4 4h-8a4 4 0 0 1 -4 -4z" />
                            <path d="M9 12a3 3 0 1 0 6 0a3 3 0 0 0 -6 0" />
                            <path d="M16.5 7.5v.01" />
                        </svg>



</svg>